<svg width="58" height="51" viewBox="0 0 58 51" fill="none" xmlns="http://www.w3.org/2000/svg">
<path d="M18.1256 43.7143H10.8753C8.8736 43.7143 7.25023 42.083 7.25023 40.0714V10.9286C7.25023 8.91703 8.8736 7.28571 10.8753 7.28571H18.1256C20.1273 7.28571 21.7507 5.6544 21.7507 3.64286C21.7507 1.63132 20.1307 0 18.1256 0H10.8753C4.86898 0 0 4.89281 0 10.9286V40.0714C0 46.1072 4.86898 51 10.8753 51H18.1256C20.1273 51 21.7507 49.3687 21.7507 47.3571C21.7507 45.3456 20.1307 43.7143 18.1256 43.7143ZM56.937 22.9272L42.4365 8.3558C41.0193 6.93167 38.7253 6.93395 37.3104 8.3558C35.8943 9.77879 35.8943 12.084 37.3104 13.507L45.6311 21.8571H21.7507C19.7455 21.8571 18.1256 23.485 18.1256 25.5C18.1256 27.515 19.7467 29.1429 21.7507 29.1429H45.6311L37.3183 37.4964C35.9022 38.9194 35.9022 41.2246 37.3183 42.6476C38.7344 44.0706 41.0284 44.0706 42.4444 42.6476L56.9449 28.0762C58.353 26.6498 58.353 24.3502 56.937 22.9272Z" fill="#0094E7"/>
</svg>
